<svg id="Group_245" data-name="Group 245" xmlns="http://www.w3.org/2000/svg" width="61.384" height="41.104" viewBox="0 0 61.384 41.104">
  <rect id="Rectangle_317" data-name="Rectangle 317" width="6.842" height="6.842" transform="translate(34.022 0)" fill="#ee576e"/>
  <rect id="Rectangle_318" data-name="Rectangle 318" width="6.842" height="6.843" transform="translate(34.022 6.843)" fill="#ee576e"/>
  <rect id="Rectangle_319" data-name="Rectangle 319" width="6.844" height="6.842" transform="translate(20.527 0)" fill="#ee576e"/>
  <rect id="Rectangle_320" data-name="Rectangle 320" width="6.842" height="6.842" transform="translate(27.371 0)" fill="#ee576e"/>
  <rect id="Rectangle_321" data-name="Rectangle 321" width="6.843" height="6.842" transform="translate(13.684 0)" fill="#ee576e"/>
  <rect id="Rectangle_322" data-name="Rectangle 322" width="6.842" height="6.843" transform="translate(6.842 6.843)" fill="#ee576e"/>
  <path id="Path_612" data-name="Path 612" d="M13.681,13.686H6.839l6.842-6.843Z" fill="#ee576e"/>
  <rect id="Rectangle_323" data-name="Rectangle 323" width="6.842" height="6.843" transform="translate(0 13.686)" fill="#ee576e"/>
  <path id="Path_613" data-name="Path 613" d="M0,20.529H6.842V13.686Z" fill="#ee576e"/>
  <rect id="Rectangle_324" data-name="Rectangle 324" width="6.842" height="6.842" transform="translate(0 20.529)" fill="#ee576e"/>
  <rect id="Rectangle_325" data-name="Rectangle 325" width="6.842" height="6.843" transform="translate(0 27.37)" fill="#ee576e"/>
  <rect id="Rectangle_326" data-name="Rectangle 326" width="6.842" height="6.843" transform="translate(6.842 34.213)" fill="#ee576e"/>
  <rect id="Rectangle_327" data-name="Rectangle 327" width="13.686" height="6.843" transform="translate(13.684 34.213)" fill="#ee576e"/>
  <path id="Path_614" data-name="Path 614" d="M13.681,34.214v6.843h5.877l7.809-6.843Z" fill="#ee576e"/>
  <rect id="Rectangle_328" data-name="Rectangle 328" width="11.445" height="11.445" transform="translate(40.786 22.792)" fill="#ee576e"/>
  <rect id="Rectangle_329" data-name="Rectangle 329" width="6.866" height="6.867" transform="translate(33.92 34.237)" fill="#ee576e"/>
  <path id="Path_615" data-name="Path 615" d="M40.862,13.638V20.5h13.66V34.234h6.862V13.643l-.023.022.02-.027Z" fill="#ee576e"/>
</svg>
