<svg id="Group_246" data-name="Group 246" xmlns="http://www.w3.org/2000/svg" width="57.432" height="68.202" viewBox="0 0 57.432 68.202">
  <rect id="Rectangle_330" data-name="Rectangle 330" width="8.073" height="8.074" transform="translate(24.679 25.095)" fill="#fff"/>
  <rect id="Rectangle_331" data-name="Rectangle 331" width="8.073" height="8.074" transform="translate(24.679 13.297)" fill="#fff"/>
  <rect id="Rectangle_332" data-name="Rectangle 332" width="8.073" height="8.074" transform="translate(10.762 13.297)" fill="#fff"/>
  <rect id="Rectangle_333" data-name="Rectangle 333" width="8.073" height="8.074" transform="translate(24.679 0)" fill="#fff"/>
  <rect id="Rectangle_334" data-name="Rectangle 334" width="8.073" height="8.074" transform="translate(10.762 42.692)" fill="#fff"/>
  <rect id="Rectangle_335" data-name="Rectangle 335" width="8.133" height="8.133" transform="translate(38.566 25.095)" fill="#fff"/>
  <rect id="Rectangle_336" data-name="Rectangle 336" width="5.852" height="11.537" transform="translate(51.579 33.229)" fill="#fff"/>
  <rect id="Rectangle_337" data-name="Rectangle 337" width="9.74" height="9.739" transform="translate(33.866 52.538)" fill="#fff"/>
  <rect id="Rectangle_338" data-name="Rectangle 338" width="5.873" height="5.874" transform="translate(27.992 62.328)" fill="#fff"/>
  <path id="Path_616" data-name="Path 616" d="M35.873,44.766H33.9v5.84H45.527V62.293h5.839V44.769l-.02.02.02-.023Z" fill="#fff"/>
  <rect id="Rectangle_339" data-name="Rectangle 339" width="10.732" height="5.847" transform="translate(46.7 33.229)" fill="#fff"/>
  <rect id="Rectangle_340" data-name="Rectangle 340" width="8.133" height="8.133" transform="translate(10.732 25.095)" fill="#fff"/>
  <rect id="Rectangle_341" data-name="Rectangle 341" width="5.852" height="17.537" transform="translate(0 33.229)" fill="#fff"/>
  <rect id="Rectangle_342" data-name="Rectangle 342" width="10.732" height="5.847" transform="translate(0 33.229)" fill="#fff"/>
</svg>
