<svg xmlns="http://www.w3.org/2000/svg" viewBox="0 0 29.65 34.19"><defs><style>.cls-1{fill:#fff;stroke:#231f20;}.cls-1,.cls-2{stroke-linecap:round;stroke-linejoin:round;stroke-width:1.53px;}.cls-2{fill:none;stroke:#fff;}</style></defs><g id="Layer_2" data-name="Layer 2"><path class="cls-1" d="M15.31,19.53l-1.67-5.1A1.93,1.93,0,0,1,14.88,12h0a1.93,1.93,0,0,1,2.45,1.24L19,18.32l-1.27-3.87a1.89,1.89,0,0,1,1.2-2.37h0a1.89,1.89,0,0,1,2.37,1.2l1.26,3.87-.94-2.87a1.89,1.89,0,0,1,1.2-2.37h0a1.88,1.88,0,0,1,2.36,1.2L26.13,16l2.37,7.24A7.73,7.73,0,0,1,23.56,33h0a8.76,8.76,0,0,1-6.68-.51L6.66,27.3a1.89,1.89,0,0,1-.92-2.37h0a1.88,1.88,0,0,1,2-1.21l5,.66L7.93,9.57A2,2,0,0,1,9.18,7.12h0a2,2,0,0,1,2.45,1.24l3.66,11.18Z"/><line class="cls-2" x1="14.41" y1="7.51" x2="16.79" y2="6.74"/><line class="cls-2" x1="19.85" y1="5.73" x2="19.51" y2="5.85"/><line class="cls-2" x1="5.35" y1="10.48" x2="1.53" y2="11.74"/><line class="cls-2" x1="8.27" y1="4.51" x2="7.05" y2="0.76"/><line class="cls-2" x1="11.82" y1="4.78" x2="13.6" y2="1.26"/><line class="cls-2" x1="5.57" y1="6.83" x2="3.26" y2="5.65"/><line class="cls-2" x1="0.76" y1="4.39" x2="0.86" y2="4.44"/></g></svg>